<svg width="44" height="44" viewBox="0 0 44 44" fill="none" xmlns="http://www.w3.org/2000/svg">
<g clip-path="url(#clip0)">
<path d="M0.268555 22.6482L14.0186 36.3982C14.3767 36.7563 14.9567 36.7563 15.3148 36.3982C15.6729 36.0401 15.6729 35.46 15.3148 35.102L3.1295 22.9167H43.0833C43.59 22.9167 44 22.5067 44 22C44 21.4933 43.59 21.0833 43.0833 21.0833H3.1295L15.3148 8.89817C15.6729 8.54007 15.6729 7.96 15.3148 7.60198C15.1357 7.42297 14.9011 7.33342 14.6666 7.33342C14.4321 7.33342 14.1976 7.42297 14.0185 7.60198L0.268467 21.352C-0.0895462 21.71 -0.0895462 22.2901 0.268555 22.6482Z" fill="#ED4853"/>
</g>
<defs>
<clipPath id="clip0">
<rect width="44" height="44" fill="white" transform="translate(44 44) rotate(-180)"/>
</clipPath>
</defs>
</svg>
