<svg width="44" height="44" viewBox="0 0 44 44" fill="none" xmlns="http://www.w3.org/2000/svg">
<g clip-path="url(#clip0)">
<path d="M43.7314 22.6482L29.9814 36.3982C29.6233 36.7563 29.0433 36.7563 28.6852 36.3982C28.3271 36.0401 28.3271 35.46 28.6852 35.102L40.8705 22.9167H0.916695C0.410008 22.9167 0 22.5067 0 22C0 21.4933 0.410008 21.0833 0.916695 21.0833H40.8705L28.6852 8.89817C28.3271 8.54007 28.3271 7.96 28.6852 7.60198C28.8643 7.42297 29.0989 7.33342 29.3334 7.33342C29.5679 7.33342 29.8024 7.42297 29.9815 7.60198L43.7315 21.352C44.0895 21.71 44.0895 22.2901 43.7314 22.6482Z" fill="#ED4853"/>
</g>
<defs>
<clipPath id="clip0">
<rect width="44" height="44" fill="white" transform="matrix(1 0 0 -1 0 44)"/>
</clipPath>
</defs>
</svg>
