<svg width="35" height="35" viewBox="0 0 55 55" fill="none" xmlns="http://www.w3.org/2000/svg">
<path d="M54.5298 26.2754L38.0307 7.94311C37.6787 7.55446 37.1874 7.33447 36.6667 7.33447H25.6673C24.945 7.33447 24.2887 7.75978 23.9918 8.41975C23.6984 9.08338 23.8194 9.857 24.3034 10.3923L39.6989 27.5L24.3034 44.6041C23.8194 45.1431 23.6948 45.9167 23.9918 46.5767C24.2887 47.2403 24.945 47.6656 25.6673 47.6656H36.6667C37.1874 47.6656 37.6787 47.442 38.0307 47.0607L54.5298 28.7283C55.1567 28.0317 55.1567 26.9684 54.5298 26.2754Z" fill="#ED4853"/>
<path d="M30.6977 26.2754L14.1986 7.94311C13.8466 7.55446 13.3553 7.33447 12.8347 7.33447H1.8353C1.113 7.33447 0.456704 7.75978 0.15972 8.41975C-0.133598 9.08338 -0.0126043 9.857 0.471369 10.3923L15.8669 27.5L0.471369 44.6041C-0.0126043 45.1431 -0.137264 45.9167 0.15972 46.5767C0.456704 47.2403 1.113 47.6656 1.8353 47.6656H12.8347C13.3553 47.6656 13.8466 47.442 14.1986 47.0607L30.6977 28.7283C31.3247 28.0317 31.3247 26.9684 30.6977 26.2754Z" fill="#ED4853"/>
</svg>
