<svg width="62" height="62" viewBox="0 0 62 62" fill="none" xmlns="http://www.w3.org/2000/svg">
<g clip-path="url(#clip0)">
<path d="M6.90234 20.2957V18.8123C6.90234 18.3107 6.49583 17.9041 5.99414 17.9041C5.49245 17.9041 5.08594 18.3107 5.08594 18.8123V20.2957C5.08594 20.7972 5.49245 21.2039 5.99414 21.2039C6.49583 21.2039 6.90234 20.7972 6.90234 20.2957Z" fill="white"/>
<path d="M57.7964 50.246C57.3715 49.9798 56.811 50.1086 56.5448 50.5338L55.4264 52.3201C54.9213 53.1269 54.6543 54.0689 54.6543 55.0441V61.0937C54.6543 61.5954 55.0608 62.0019 55.5625 62.0019C56.0642 62.0019 56.4707 61.5954 56.4707 61.0937V55.0441C56.4707 54.4103 56.6419 53.8014 56.966 53.2839L58.0843 51.4976C58.3504 51.0726 58.2217 50.5122 57.7964 50.246Z" fill="white"/>
<path d="M59.3655 45.0351L58.5568 42.6843V36.0907C58.5568 35.0961 57.8761 34.2492 56.9271 33.9262V4.03618C56.9271 1.81059 55.1165 0 52.891 0H6.33696C4.11138 0 2.30078 1.81059 2.30078 4.03618V12.2923C2.30078 12.7939 2.70729 13.2006 3.20898 13.2006C3.71068 13.2006 4.11719 12.7939 4.11719 12.2923V4.03618C4.11719 2.81216 5.11294 1.81641 6.33696 1.81641H52.891C54.1149 1.81641 55.1107 2.81216 55.1107 4.03618V33.7847H55.0336C54.4394 33.7847 53.8935 33.9811 53.4664 34.3074C53.2569 34.1473 53.0177 34.0208 52.7593 33.9312C52.761 33.9061 52.7631 33.8812 52.7631 33.8558V5.2522C52.7631 4.65218 52.2793 4.16417 51.6846 4.16417H41.2657C40.764 4.16417 40.3575 4.5708 40.3575 5.07238C40.3575 5.57395 40.764 5.98058 41.2657 5.98058H50.9467V33.1275H46.0098V28.6577H47.2812C48.4802 28.6577 49.4558 27.6822 49.4558 26.4831V23.0142C49.4558 21.8152 48.4802 20.8396 47.2812 20.8396H38.6684C37.4693 20.8396 36.4938 21.8152 36.4938 23.0142V26.4831C36.4938 27.6822 37.4693 28.6577 38.6684 28.6577H40.0111V33.1275H9.60746V5.98046H37.6192C38.1209 5.98046 38.5274 5.57382 38.5274 5.07225C38.5274 4.57068 38.1209 4.16405 37.6192 4.16405H8.86939C8.27482 4.16405 7.79105 4.65218 7.79105 5.25208V33.8556C7.79105 34.4555 8.27482 34.9437 8.86939 34.9437H40.0112V37.2913H6.33696C5.11306 37.2913 4.11719 36.2954 4.11719 35.0715V16.0341C4.11719 15.5326 3.71068 15.1259 3.20898 15.1259C2.70729 15.1259 2.30078 15.5326 2.30078 16.0341V35.0715C2.30078 37.2971 4.11138 39.1077 6.33696 39.1077H40.0112V41.3837L37.1025 39.9675C35.9724 39.4172 34.638 39.6927 33.7819 40.6536C32.6859 41.8834 32.7019 43.7937 33.8182 45.0023L39.282 50.9177C39.7454 51.4194 40.0111 52.1238 40.0111 52.8504V61.0918C40.0111 61.5935 40.4176 62 40.9193 62C41.421 62 41.8275 61.5935 41.8275 61.0918V52.8503C41.8275 51.6548 41.3974 50.5308 40.6163 49.6851L35.1525 43.7697C34.6796 43.2576 34.6728 42.3839 35.138 41.8619C35.4514 41.5098 35.9105 41.407 36.3073 41.6004L40.5217 43.6524C41.1279 43.9473 41.8275 43.4988 41.8275 42.8358V27.232C41.8275 26.4625 42.3582 25.8363 43.0106 25.8363C43.6629 25.8363 44.1935 26.4624 44.1935 27.232V36.0907V42.8361C44.1935 43.3378 44.6 43.7443 45.1017 43.7443C45.6034 43.7443 46.0099 43.3378 46.0099 42.8361V36.0907C46.0099 35.8253 46.3117 35.6011 46.6689 35.6011H47.7167C48.074 35.6011 48.3757 35.8253 48.3757 36.0907V42.8361C48.3757 43.3378 48.7823 43.7443 49.2839 43.7443C49.7856 43.7443 50.1921 43.3378 50.1921 42.8361V36.0907C50.1921 35.8253 50.4939 35.6011 50.8511 35.6011H51.899C52.2562 35.6011 52.558 35.8253 52.558 36.0907V42.8361C52.558 43.3378 52.9645 43.7443 53.4662 43.7443C53.9678 43.7443 54.3744 43.3378 54.3744 42.8361V36.0907C54.3744 35.8253 54.6761 35.6011 55.0334 35.6011H56.0812C56.4383 35.6011 56.7401 35.8253 56.7401 36.0907V42.8361C56.7401 42.935 56.7593 43.0435 56.7895 43.1314L57.6474 45.6258C57.8478 46.2086 57.9264 46.8455 57.8746 47.4673C57.8309 47.9943 58.2456 48.4508 58.7807 48.4508C59.2481 48.4508 59.6453 48.0921 59.6848 47.6179C59.7576 46.7473 59.6471 45.8542 59.3655 45.0351ZM43.0106 24.0199C41.4803 24.0199 40.2149 25.2539 40.0341 26.8412H38.6684C38.4709 26.8412 38.3102 26.6805 38.3102 26.483V23.0141C38.3102 22.8166 38.4709 22.6559 38.6684 22.6559H47.2812C47.4787 22.6559 47.6394 22.8166 47.6394 23.0141V26.483C47.6394 26.6805 47.4787 26.8412 47.2812 26.8412H45.9868C45.8063 25.2537 44.5408 24.0199 43.0106 24.0199Z" fill="white"/>
<path d="M30.3649 25.3492C30.8666 25.3492 31.2731 24.9426 31.2731 24.441C31.2731 23.9394 30.8666 23.5328 30.3649 23.5328H29.8251V20.9784C29.8251 19.5354 28.7438 18.341 27.3491 18.1608V13.3906C27.3491 12.2528 26.4233 11.3271 25.2856 11.3271H17.087C15.9492 11.3271 15.0237 12.2528 15.0237 13.3906V18.1608C13.6289 18.341 12.5475 19.5354 12.5475 20.9784V23.5328H12.0078C11.5061 23.5328 11.0996 23.9394 11.0996 24.441C11.0996 24.9426 11.5061 25.3492 12.0078 25.3492H30.3649ZM16.8399 13.3906C16.8399 13.2544 16.9507 13.1436 17.0868 13.1436H25.2855C25.4217 13.1436 25.5325 13.2544 25.5325 13.3906V18.1365H16.8399V13.3906ZM14.3638 23.5328V20.9784C14.3638 20.4129 14.8238 19.9529 15.3894 19.9529H26.9832C27.5486 19.9529 28.0087 20.4129 28.0087 20.9784V23.5328H14.3638Z" fill="white"/>
<path d="M18.5879 27.8667C18.0862 27.8667 17.6797 28.2733 17.6797 28.7749C17.6797 29.2765 18.0862 29.6831 18.5879 29.6831H23.7586C24.2603 29.6831 24.6668 29.2765 24.6668 28.7749C24.6668 28.2733 24.2603 27.8667 23.7586 27.8667H18.5879Z" fill="white"/>
<path d="M48.3304 8.66577H37.6191C37.1174 8.66577 36.7109 9.0724 36.7109 9.57398C36.7109 10.0755 37.1174 10.4822 37.6191 10.4822H48.3304C48.8321 10.4822 49.2386 10.0755 49.2386 9.57398C49.2386 9.0724 48.8321 8.66577 48.3304 8.66577Z" fill="white"/>
<path d="M48.3304 12.4651H37.6191C37.1174 12.4651 36.7109 12.8717 36.7109 13.3733C36.7109 13.8749 37.1174 14.2815 37.6191 14.2815H48.3304C48.8321 14.2815 49.2386 13.8749 49.2386 13.3733C49.2386 12.8717 48.8321 12.4651 48.3304 12.4651Z" fill="white"/>
<path d="M48.3304 16.262H37.6191C37.1174 16.262 36.7109 16.6686 36.7109 17.1702C36.7109 17.6717 37.1174 18.0784 37.6191 18.0784H48.3304C48.8321 18.0784 49.2386 17.6717 49.2386 17.1702C49.2386 16.6686 48.8321 16.262 48.3304 16.262Z" fill="white"/>
</g>
<defs>
<clipPath id="clip0">
<rect width="62" height="62" fill="white"/>
</clipPath>
</defs>
</svg>
