<svg width="62" height="62" viewBox="0 0 62 62" fill="none" xmlns="http://www.w3.org/2000/svg">
<g clip-path="url(#clip0)">
<path d="M61.5864 29.8433C55.9513 22.9778 44.0209 14.9658 31.0001 14.9658C17.9325 14.9658 6.00166 23.0323 0.413759 29.8433C-0.13792 30.5157 -0.13792 31.4841 0.413759 32.1565C6.18243 39.188 18.1408 47.0341 31.0001 47.0341C44.3163 47.0341 56.1959 38.724 61.5864 32.1566C62.138 31.4841 62.138 30.5157 61.5864 29.8433ZM43.3871 30.9999C43.3871 37.8301 37.8303 43.387 30.9999 43.387C24.1695 43.387 18.6128 37.8297 18.6128 30.9999C18.6128 24.1697 24.1696 18.6128 30.9999 18.6128C37.8309 18.6129 43.3871 24.1704 43.3871 30.9999ZM4.28681 31.0004C6.33926 28.8672 11.2881 24.2635 18.2351 21.3088C13.8754 27.0373 13.8737 34.9577 18.233 40.6883C12.951 38.4496 8.04426 34.9127 4.28681 31.0004ZM43.765 40.691C48.1247 34.9623 48.1263 27.0421 43.7671 21.3115C49.0489 23.5501 53.9557 27.0872 57.7133 30.9993C55.6609 33.1327 50.7121 37.7361 43.765 40.691Z" fill="white"/>
<path d="M24.7988 31C24.7988 34.4188 27.5801 37.2 30.9988 37.2C34.4175 37.2 37.1988 34.4188 37.1988 31C37.1988 27.5813 34.4175 24.8 30.9988 24.8C27.5801 24.8 24.7988 27.5813 24.7988 31ZM33.5518 31C33.5518 32.4078 32.4065 33.553 30.9988 33.553C29.5911 33.553 28.4459 32.4078 28.4459 31C28.4459 29.5923 29.5911 28.4471 30.9988 28.4471C32.4065 28.4471 33.5518 29.5923 33.5518 31Z" fill="white"/>
<path d="M30.9993 7.90196C32.0064 7.90196 32.8228 7.08551 32.8228 6.07843V1.82353C32.8228 0.816455 32.0064 0 30.9993 0C29.9922 0 29.1758 0.816455 29.1758 1.82353V6.07843C29.1758 7.08551 29.9922 7.90196 30.9993 7.90196Z" fill="white"/>
<path d="M41.8813 10.3408C42.7556 10.8395 43.8696 10.5354 44.3687 9.66015L46.7955 5.40524C47.2944 4.53044 46.9899 3.41687 46.1149 2.91783C45.2399 2.41891 44.1266 2.72344 43.6275 3.59849L41.2008 7.85339C40.7018 8.72808 41.0065 9.84177 41.8813 10.3408Z" fill="white"/>
<path d="M17.6314 9.66037C18.1303 10.5352 19.2439 10.8398 20.1188 10.3409C20.9937 9.84199 21.2983 8.7283 20.7994 7.85349L18.3726 3.59859C17.8737 2.72378 16.7599 2.41913 15.8852 2.91805C15.0104 3.41697 14.7058 4.53066 15.2047 5.40547L17.6314 9.66037Z" fill="white"/>
<path d="M30.9993 54.0979C29.9922 54.0979 29.1758 54.9144 29.1758 55.9214V60.1763C29.1758 61.1834 29.9922 61.9999 30.9993 61.9999C32.0064 61.9999 32.8228 61.1834 32.8228 60.1763V55.9214C32.8228 54.9144 32.0064 54.0979 30.9993 54.0979Z" fill="white"/>
<path d="M20.1188 51.6592C19.244 51.1604 18.1305 51.4649 17.6314 52.3397L15.2047 56.5946C14.7058 57.4695 15.0104 58.5831 15.8852 59.0821C16.7601 59.581 17.8737 59.2762 18.3726 58.4015L20.7994 54.1466C21.2984 53.2718 20.9936 52.1581 20.1188 51.6592Z" fill="white"/>
<path d="M44.3687 52.3398C43.8698 51.4649 42.7559 51.1605 41.8813 51.6591C41.0065 52.1581 40.7018 53.2718 41.2008 54.1466L43.6275 58.4015C44.1263 59.2763 45.2399 59.581 46.1149 59.0821C46.9897 58.5832 47.2944 57.4695 46.7955 56.5947L44.3687 52.3398Z" fill="white"/>
</g>
<defs>
<clipPath id="clip0">
<rect width="62" height="62" fill="white"/>
</clipPath>
</defs>
</svg>
