<svg width="18" height="18" viewBox="0 0 18 18" fill="none" xmlns="http://www.w3.org/2000/svg">
<path d="M16.5088 2.83825C14.5514 0.975535 11.3653 0.975535 9.40718 2.83783L9.00004 3.22455L8.59331 2.83801C6.635 0.975465 3.44932 0.975676 1.49101 2.83801C0.529488 3.75256 0 4.96563 0 6.2534C0 7.5416 0.529488 8.75445 1.49115 9.66939L8.56526 16.3854C8.68693 16.5012 8.84359 16.5589 9 16.5589C9.15641 16.5589 9.31286 16.501 9.43474 16.3852L16.5088 9.66939C17.4703 8.75466 18 7.54163 18 6.25361C18 4.96563 17.4703 3.75277 16.5088 2.83825ZM15.6385 8.75361L9 15.0564L2.36169 8.75382C1.65326 8.08016 1.26316 7.19214 1.26316 6.25361C1.26316 5.31508 1.65326 4.42707 2.36169 3.75341C3.10064 3.05025 4.07116 2.69889 5.0419 2.69889C6.01284 2.69889 6.98379 3.05067 7.72274 3.75383L8.56484 4.55363C8.80861 4.78542 9.19114 4.78542 9.43495 4.55363L10.2773 3.75341C11.7554 2.3473 14.1602 2.3473 15.6383 3.75341C16.3465 4.42711 16.7368 5.31508 16.7368 6.25361C16.7368 7.19214 16.3465 8.07995 15.6385 8.75361Z" fill="white"/>
</svg>
