<svg width="13" height="13" viewBox="0 0 13 13" fill="none" xmlns="http://www.w3.org/2000/svg">
<g clip-path="url(#clip0)">
<path d="M12.966 4.98622C12.8804 4.72298 12.6469 4.53661 12.3718 4.51172L8.61908 4.17102L7.13598 0.698798C7.02648 0.443698 6.77734 0.279053 6.50002 0.279053C6.2227 0.279053 5.97345 0.443698 5.86465 0.698798L4.38155 4.17102L0.628238 4.51172C0.353102 4.53711 0.120119 4.72348 0.0340279 4.98622C-0.0515677 5.24945 0.0274818 5.53817 0.235569 5.72067L3.07232 8.2081L2.23591 11.892C2.17471 12.1629 2.27985 12.443 2.5046 12.6054C2.6254 12.6932 2.76733 12.737 2.90976 12.737C3.03216 12.737 3.15465 12.7045 3.26405 12.639L6.50002 10.7042L9.73539 12.639C9.97274 12.7809 10.2712 12.7679 10.4954 12.6054C10.7202 12.443 10.8253 12.1629 10.7641 11.892L9.92771 8.2081L12.7645 5.72067C12.9725 5.53817 13.0516 5.25004 12.966 4.98622Z" fill="#ED4853" fill-opacity="0.22"/>
</g>
<defs>
<clipPath id="clip0">
<rect width="13" height="13" fill="white"/>
</clipPath>
</defs>
</svg>
