<svg width="53" height="53" viewBox="0 0 53 53" fill="none" xmlns="http://www.w3.org/2000/svg">
<path d="M0 0V53H53V0H0ZM46.1216 17.9059C47.0246 18.4211 47.6521 19.1897 47.6521 20.6045C47.6521 22.2216 46.3478 23.3865 44.8514 23.3865C44.2494 23.3865 43.8906 23.2402 43.3227 22.929C37.9492 19.705 29.605 17.9297 21.5364 17.9297C17.5097 17.9297 13.4183 18.3395 9.67053 19.3564C9.23691 19.4652 8.69616 19.6811 8.14691 19.6811C6.56208 19.6811 5.34795 18.4296 5.34795 16.8431C5.34795 15.2293 6.34783 14.3213 7.42422 14.0067C11.6584 12.7569 16.3857 12.177 21.5227 12.177C30.2427 12.177 39.4235 13.9727 46.1216 17.9059ZM10.4748 37.2979C9.34574 37.2979 8.59414 36.4069 8.59414 35.4325C8.59414 34.1861 9.31513 33.562 10.2096 33.392C13.8792 32.5553 17.5318 32.0809 21.3238 32.0809C27.8247 32.0809 33.6164 33.5739 38.5988 36.5599C39.3419 36.9919 39.7772 37.4357 39.7772 38.5342C39.7772 39.6055 38.9032 40.3911 37.9305 40.3911C37.4459 40.3911 37.1177 40.2244 36.6722 39.9524C32.3666 37.3456 26.9999 35.9801 21.3034 35.9801C18.1235 35.9801 14.9267 36.3848 11.9355 37.0072C11.4509 37.1126 10.8404 37.2979 10.4748 37.2979ZM7.3613 26.4864C7.3613 25.223 7.97347 24.3557 9.2063 24.0071C12.546 23.0872 15.9554 22.3866 20.9191 22.3866C28.6919 22.3866 36.213 24.32 42.1272 27.8587C43.1169 28.4266 43.4825 29.151 43.4825 30.207C43.4825 31.4926 42.4588 32.5315 41.1682 32.5315C40.5254 32.5315 40.119 32.2697 39.6837 32.0146C34.8493 29.1459 28.1563 27.2431 20.8222 27.2431C17.0607 27.2431 13.8129 27.7685 11.1278 28.4827C10.548 28.646 10.2249 28.8126 9.68243 28.8126C8.40198 28.8143 7.3613 27.7753 7.3613 26.4864Z" fill="#ED4853"/>
</svg>
