<svg width="76" height="76" viewBox="0 0 76 76" fill="none" xmlns="http://www.w3.org/2000/svg">
<g filter="url(#filter0_i)">
<path d="M38 76C58.9868 76 76 58.9868 76 38C76 17.0132 58.9868 0 38 0C17.0132 0 0 17.0132 0 38C0 58.9868 17.0132 76 38 76Z" fill="white"/>
<path d="M26.6697 31.1063C27.3283 28.7148 28.8331 26.8807 29.9022 25.8192C30.205 25.5252 30.3814 25.125 30.3942 24.7032C30.407 24.2814 30.255 23.8712 29.9706 23.5595L29.7907 23.3619C29.5521 23.1018 29.2346 22.9275 28.8872 22.8657C28.5397 22.8039 28.1816 22.8581 27.8679 23.0199C15.0518 29.7484 15.2013 38.8735 15.3381 40.4213C15.3381 40.5911 15.3127 40.7608 15.3127 40.928C15.3105 42.8338 15.8562 44.7001 16.8847 46.3045C17.9133 47.9089 19.3813 49.1838 21.114 49.9774C22.8467 50.771 24.771 51.0499 26.6577 50.7806C28.5444 50.5114 30.314 49.7056 31.7556 48.459C33.1972 47.2125 34.2501 45.5778 34.7888 43.7498C35.3276 41.9217 35.3295 39.9773 34.7944 38.1482C34.2592 36.3191 33.2096 34.6823 31.7705 33.4329C30.3313 32.1835 28.5634 31.3741 26.6773 31.1012L26.6697 31.1063Z" fill="#ED4853"/>
<path d="M50.3585 31.1071C51.0172 28.7156 52.522 26.8815 53.591 25.82C53.8935 25.5257 54.0695 25.1253 54.0818 24.7035C54.0941 24.2817 53.9417 23.8717 53.6569 23.5603L53.477 23.3627C53.2398 23.0984 52.9218 22.9201 52.5726 22.8555C52.2235 22.7909 51.8627 22.8436 51.5466 23.0055C38.7305 29.734 38.88 38.8591 39.0168 40.4069C39.0168 40.5767 38.9914 40.7464 38.9914 40.9136C38.9892 42.8194 39.5349 44.6857 40.5634 46.2901C41.592 47.8945 43.06 49.1695 44.7928 49.9631C46.5255 50.7567 48.4498 51.0355 50.3364 50.7662C52.2231 50.497 53.9927 49.6912 55.4343 48.4446C56.8759 47.1981 57.9288 45.5634 58.4675 43.7354C59.0063 41.9073 59.0082 39.9629 58.4731 38.1338C57.938 36.3047 56.8883 34.6679 55.4492 33.4185C54.0101 32.1691 52.2421 31.3598 50.356 31.0868L50.3585 31.1071Z" fill="#ED4853"/>
</g>
<defs>
<filter id="filter0_i" x="0" y="0" width="76" height="80" filterUnits="userSpaceOnUse" color-interpolation-filters="sRGB">
<feFlood flood-opacity="0" result="BackgroundImageFix"/>
<feBlend mode="normal" in="SourceGraphic" in2="BackgroundImageFix" result="shape"/>
<feColorMatrix in="SourceAlpha" type="matrix" values="0 0 0 0 0 0 0 0 0 0 0 0 0 0 0 0 0 0 127 0" result="hardAlpha"/>
<feOffset dy="4"/>
<feGaussianBlur stdDeviation="2"/>
<feComposite in2="hardAlpha" operator="arithmetic" k2="-1" k3="1"/>
<feColorMatrix type="matrix" values="0 0 0 0 0 0 0 0 0 0 0 0 0 0 0 0 0 0 0.25 0"/>
<feBlend mode="normal" in2="shape" result="effect1_innerShadow"/>
</filter>
</defs>
</svg>
