<svg width="62" height="62" viewBox="0 0 62 62" fill="none" xmlns="http://www.w3.org/2000/svg">
<path d="M47.7488 37.5515L43.0664 42.2339L44.473 43.6405L46.754 41.3595V49.9006H48.7436V41.3595L51.0246 43.6405L52.4312 42.2339L47.7488 37.5515Z" fill="white"/>
<path d="M25.5728 9.40649L24.1662 10.8131L26.4472 13.0941H11.9375V15.0836H26.4472L24.1662 17.3646L25.5728 18.7712L30.2552 14.0889L25.5728 9.40649Z" fill="white"/>
<path d="M3.97852 41.9424V55.8692H21.8844V41.9424H3.97852ZM19.8948 53.8796H5.96805V43.9319H19.8948V53.8796Z" fill="white"/>
<path d="M34.8168 41.9424H24.8691V43.9319H34.8168V41.9424Z" fill="white"/>
<path d="M34.8168 45.9216H24.8691V47.9112H34.8168V45.9216Z" fill="white"/>
<path d="M34.8168 49.9006H24.8691V51.8902H34.8168V49.9006Z" fill="white"/>
<path d="M34.8168 53.8796H24.8691V55.8692H34.8168V53.8796Z" fill="white"/>
<path d="M60.6481 31.2417C59.9289 28.7229 57.8866 26.8388 55.3191 26.3265L49.7385 25.2104V24.9498C51.5788 23.8814 52.9496 22.0988 53.4748 19.9819C55.3102 19.6278 56.7019 18.0152 56.7019 16.0784V9.23739C56.7019 6.49382 54.9262 4.09742 52.3388 3.28071C50.8904 1.32102 48.6044 0.162109 46.1523 0.162109C39.9012 0.162109 34.8169 5.24638 34.8169 11.4975V16.0784C34.8169 18.0152 36.2086 19.6278 38.044 19.9819C38.5692 22.0988 39.94 23.8814 41.7803 24.9498V25.2104L36.2016 26.3265C34.0778 26.7513 32.326 28.1211 31.372 30.0052H0V61.8378H39.7908V35.9738H62L60.6481 31.2417ZM53.7176 17.7914V14.3654C54.3094 14.7106 54.7123 15.3453 54.7123 16.0784C54.7123 16.8116 54.3094 17.4462 53.7176 17.7914ZM37.8012 17.7914C37.2094 17.4462 36.8065 16.8116 36.8065 16.0784C36.8065 15.3453 37.2094 14.7106 37.8012 14.3654V17.7914ZM36.8065 12.6524V11.4965C36.8065 6.3446 40.9984 2.15165 46.1523 2.15165C48.0643 2.15165 49.8399 3.10165 50.9004 4.69328L51.1132 5.01261L51.4863 5.10611C53.3863 5.58062 54.7123 7.27969 54.7123 9.23739V12.6524C54.1244 12.3102 53.451 12.0993 52.7228 12.0993C50.3702 12.0993 48.0384 11.3224 46.1563 9.91085L44.6711 8.79671L43.1869 10.2809C42.0141 11.4537 40.4553 12.0993 38.796 12.0993C38.0678 12.0993 37.3944 12.3102 36.8065 12.6524ZM39.7908 18.068V14.0222C41.6042 13.8044 43.2824 12.9986 44.5935 11.6875L44.8581 11.4229L44.9636 11.5015C46.9213 12.9698 49.2918 13.8561 51.728 14.0481V18.068C51.728 21.3597 49.0511 24.0366 45.7594 24.0366C42.4677 24.0366 39.7908 21.3597 39.7908 18.068ZM37.8012 59.8483H1.98954V39.9529H37.8012V59.8483ZM37.8012 37.9634H1.98954V31.9947H30.6558L29.5188 35.9738H37.8012V37.9634ZM54.4935 33.9843L53.6867 30.7592L51.7569 31.2407L52.4433 33.9843H39.0755L39.7609 31.2407L37.8311 30.7592L37.0243 33.9843H32.1559L32.7846 31.7878C33.2989 29.9883 34.7572 28.6444 36.5916 28.2773L43.7699 26.8418V25.7635C44.4075 25.9296 45.071 26.0261 45.7594 26.0261C46.4478 26.0261 47.1113 25.9296 47.7489 25.7645V26.8428L54.9282 28.2773C56.7625 28.6444 58.2209 29.9893 58.7352 31.7878L59.3619 33.9843H54.4935Z" fill="white"/>
<path d="M5.96805 33.9844H3.97852V35.9739H5.96805V33.9844Z" fill="white"/>
<path d="M9.94852 33.9844H7.95898V35.9739H9.94852V33.9844Z" fill="white"/>
<path d="M13.927 33.9844H11.9375V35.9739H13.927V33.9844Z" fill="white"/>
<path d="M1.98954 13.0942H0V15.0838H1.98954V13.0942Z" fill="white"/>
<path d="M5.96805 13.0942H3.97852V15.0838H5.96805V13.0942Z" fill="white"/>
<path d="M9.94852 13.0942H7.95898V15.0838H9.94852V13.0942Z" fill="white"/>
<path d="M48.7434 59.8484H46.7539V61.8379H48.7434V59.8484Z" fill="white"/>
<path d="M48.7434 55.8694H46.7539V57.8589H48.7434V55.8694Z" fill="white"/>
<path d="M48.7434 51.8901H46.7539V53.8797H48.7434V51.8901Z" fill="white"/>
</svg>
