<svg width="49" height="49" viewBox="0 0 49 49" fill="none" xmlns="http://www.w3.org/2000/svg">
<path d="M24.5 49C10.969 49 0 38.031 0 24.5C0 10.969 10.969 0 24.5 0C38.031 0 49 10.969 49 24.5C49 38.031 38.031 49 24.5 49Z" fill="white"/>
<path d="M0 24.5H49C49 38.031 38.031 49 24.5 49C10.969 49 0 38.031 0 24.5Z" fill="#F4F2F2"/>
<path d="M11.1396 23.3972L22.6239 13.8269C23.0518 13.4703 23.6471 13.3934 24.1518 13.6296C24.6563 13.8659 24.9785 14.3727 24.9785 14.9297V21.4351L34.1083 13.8269C34.5361 13.4703 35.1316 13.3934 35.6362 13.6296C36.1407 13.8659 36.4629 14.3727 36.4629 14.9297V34.0703C36.4629 34.6273 36.1407 35.134 35.6362 35.3703C35.4419 35.4613 35.2342 35.5058 35.0276 35.5058C34.6979 35.5058 34.3715 35.3923 34.1084 35.1731L24.9785 27.565V34.0703C24.9785 34.6273 24.6563 35.134 24.1518 35.3703C23.9576 35.4613 23.7498 35.5058 23.5433 35.5058C23.2136 35.5058 22.8871 35.3923 22.624 35.1731L11.1397 25.6028C10.8123 25.33 10.6231 24.926 10.6231 24.5C10.6231 24.074 10.8123 23.67 11.1396 23.3972Z" fill="#ED4853"/>
<path d="M36.4629 34.0703C36.4629 34.6273 36.1407 35.1341 35.6362 35.3703C35.4419 35.4614 35.2342 35.5059 35.0276 35.5059C34.6979 35.5059 34.3715 35.3924 34.1084 35.1731L29.5435 31.369L24.9785 27.565V34.0703C24.9785 34.6273 24.6563 35.1341 24.1518 35.3703C23.9576 35.4614 23.7498 35.5059 23.5433 35.5059C23.2136 35.5059 22.8871 35.3924 22.624 35.1731L11.1397 25.6028C10.8123 25.33 10.6231 24.926 10.6231 24.5H36.4629V34.0703Z" fill="#DE333E"/>
</svg>
