<svg width="49" height="49" viewBox="0 0 49 49" fill="none" xmlns="http://www.w3.org/2000/svg">
<path d="M24.5 49C38.031 49 49 38.031 49 24.5C49 10.969 38.031 0 24.5 0C10.969 0 0 10.969 0 24.5C0 38.031 10.969 49 24.5 49Z" fill="white"/>
<path d="M49 24.5H0C0 38.031 10.969 49 24.5 49C38.031 49 49 38.031 49 24.5Z" fill="#F4F2F2"/>
<path d="M37.8604 23.3972L26.3761 13.8269C25.9482 13.4703 25.3529 13.3934 24.8482 13.6296C24.3437 13.8659 24.0215 14.3727 24.0215 14.9297V21.4351L14.8917 13.8269C14.4639 13.4703 13.8684 13.3934 13.3638 13.6296C12.8593 13.8659 12.5371 14.3727 12.5371 14.9297V34.0703C12.5371 34.6273 12.8593 35.134 13.3638 35.3703C13.5581 35.4613 13.7658 35.5058 13.9724 35.5058C14.3021 35.5058 14.6285 35.3923 14.8916 35.1731L24.0215 27.565V34.0703C24.0215 34.6273 24.3437 35.134 24.8482 35.3703C25.0424 35.4613 25.2502 35.5058 25.4567 35.5058C25.7864 35.5058 26.1129 35.3923 26.376 35.1731L37.8603 25.6028C38.1877 25.33 38.3769 24.926 38.3769 24.5C38.3769 24.074 38.1877 23.67 37.8604 23.3972Z" fill="#ED4853"/>
<path d="M12.5371 34.0703C12.5371 34.6273 12.8593 35.1341 13.3638 35.3703C13.5581 35.4614 13.7658 35.5059 13.9724 35.5059C14.3021 35.5059 14.6285 35.3924 14.8916 35.1731L19.4565 31.369L24.0215 27.565V34.0703C24.0215 34.6273 24.3437 35.1341 24.8482 35.3703C25.0424 35.4614 25.2502 35.5059 25.4567 35.5059C25.7864 35.5059 26.1129 35.3924 26.376 35.1731L37.8603 25.6028C38.1877 25.33 38.3769 24.926 38.3769 24.5H12.5371V34.0703Z" fill="#DE333E"/>
</svg>
